<?xml version="1.0" encoding="UTF-8" standalone="no"?>
<svg
   xmlns:dc="http://purl.org/dc/elements/1.1/"
   xmlns:cc="http://creativecommons.org/ns#"
   xmlns:rdf="http://www.w3.org/1999/02/22-rdf-syntax-ns#"
   xmlns:svg="http://www.w3.org/2000/svg"
   xmlns="http://www.w3.org/2000/svg"
   xmlns:sodipodi="http://sodipodi.sourceforge.net/DTD/sodipodi-0.dtd"
   xmlns:inkscape="http://www.inkscape.org/namespaces/inkscape"
   version="1.1"
   id="ExplodeDiagram"
   width="50.561676"
   height="100.95788"
   viewBox="0 0 50.561676 100.95788"
   enable-background="new 0 0 100 100"
   xml:space="preserve">
  <title
     id="title4721">Kinect Explode Gesture Diagram</title>
  <metadata
     id="metadata6719"><rdf:RDF><cc:Work
       rdf:about=""><dc:format>image/svg+xml</dc:format><dc:type
         rdf:resource="http://purl.org/dc/dcmitype/StillImage" /><dc:title>Kinect Explode Gesture Diagram</dc:title><dc:creator><cc:Agent><dc:title>Bryce Matsumori</dc:title></cc:Agent></dc:creator></cc:Work></rdf:RDF></metadata><defs
   id="defs6717"><clipPath
     clipPathUnits="userSpaceOnUse"
     id="clipPath4713"><path
       inkscape:connector-curvature="0"
       style="fill:#d6d6d6;fill-opacity:1;stroke:none;display:inline"
       d="m 47.323883,27.72789 c -0.119694,1.08055 -0.28331,2.17721 -0.1875,3.21875 a 1.0998382,1.0998382 0 0 1 0,0.09375 l 0,18.59375 29.562501,0 0,-18.34375 c -0.879667,0.547169 -1.922923,0.875 -3.03125,0.875 -1.61366,0 -3.01784,-0.736715 -4.0625,-1.8125 l -22.281251,-2.625 z"
       id="path4715" /></clipPath></defs><sodipodi:namedview
   pagecolor="#511c74"
   bordercolor="#666666"
   borderopacity="1"
   objecttolerance="10"
   gridtolerance="10"
   guidetolerance="10"
   inkscape:pageopacity="1"
   inkscape:pageshadow="2"
   inkscape:window-width="1440"
   inkscape:window-height="848"
   id="namedview6715"
   showgrid="false"
   inkscape:zoom="3.5797234"
   inkscape:cx="25.275982"
   inkscape:cy="62.862306"
   inkscape:window-x="-8"
   inkscape:window-y="-8"
   inkscape:window-maximized="1"
   inkscape:current-layer="layer6"
   fit-margin-top="0"
   fit-margin-left="0"
   fit-margin-right="0"
   fit-margin-bottom="0" />
<g
   inkscape:groupmode="layer"
   id="layer7"
   inkscape:label=".git"
   style="display:none"
   sodipodi:insensitive="true"
   transform="translate(-30.167633,0.52211)"><path
     d="m 187.93134,38.632509 -30.026,-3.944 c -1.808,-1.774 -9.003,-2.917 -11.339,-0.006 -0.299,0.373 -0.64,1.301 -0.721,1.773 -0.129,0.75 -0.083,2.958 -0.083,2.958 l 1.753,34.126 -10.909,34.077001 c -2.154,7.228 8.501,10.23899 10.632,3.278 l 13.505,-37.631001 -0.14,-19.138 c 0,0 -0.028,-1.469 -0.065,-3.235 l 19.704,9.303 c 4.93,2.769 9.006,-4.424 4.057,-7.245 l -12.909,-6.294 -10.98,-1.181 c -0.009,-0.306 -0.018,-0.521 -0.024,-0.605 -0.028,-0.38 -0.073,-0.775 -0.126,-1.176 l 26.126,3.098 c 5.553,1.062 7.136,-7.054 1.545,-8.158 z"
     id="path6713"
     style="fill:#ffffff;fill-opacity:1"
     inkscape:connector-curvature="0" /><path
     inkscape:connector-curvature="0"
     d="m -99.382776,12.76561 c -5.938614,0 -10.714274,4.843226 -10.714274,10.884108 l 0,25.747071 c 0,5.005658 7.32583,5.005658 7.32583,0 l 0,-23.542942 1.73406,0 0,64.464101 c 0,6.692493 9.75524,6.495553 9.75524,0 l 0,-37.420792 1.680259,0 0,37.420792 c 0,6.495553 9.809044,6.692493 9.809044,0 l 0,-64.464101 c 6.925785,3.972087 15.827823,5.75346 20.586774,11.426668 3.821071,3.237841 8.109069,-4.197157 4.193869,-6.77689 -10.659176,-3.023104 -16.966995,-13.653913 -26.658663,-17.726517 -2.438657,-0.92412 -17.712139,-0.01153 -17.712139,-0.01153 z"
     id="path2459-7"
     style="fill:#ffffff;fill-opacity:1;stroke:none"
     sodipodi:nodetypes="csssccssccsscccccc" /><path
     inkscape:connector-curvature="0"
     d="m -34.17777,58.104593 c -4.744143,0.131314 -1.823554,9.274678 -1.654383,13.088238 l 0,64.464099 c 0,6.69249 9.755239,6.49555 9.755239,0 l 0,-37.42079 1.680259,0 0,37.42079 c 0,6.49555 9.809044,6.69249 9.809044,0 l 0,-64.464099 c -0.453281,-4.927582 2.640396,-8.910662 -1.87802,-13.07674 -2.438657,-0.92412 -17.712139,-0.01153 -17.712139,-0.01153 z"
     id="path2459-4"
     style="fill:#ffffff;fill-opacity:1;stroke:none"
     sodipodi:nodetypes="ccssccsscccc" /><path
     inkscape:connector-curvature="0"
     d="m -70.154188,143.22673 0.423729,44.97258 c 0.06305,6.69218 9.276323,6.47786 9.755239,0 l 5.084746,-68.77672 c 9.067161,-6.24991 -12.142451,-22.988619 -14.880517,9.44469 11.243575,-30.779296 -1.263165,-2.43916 -0.383197,14.35945 z"
     id="path2459-4-0"
     style="fill:#ffffff;fill-opacity:1;stroke:none"
     sodipodi:nodetypes="cssccc" /><path
     inkscape:connector-curvature="0"
     d="m 27.56561,145.8483 -1.56423,46.28718 c -0.22604,6.68866 9.41119,6.28031 9.75306,-0.20623 l 3.6297,-68.86883 c -9.6906,-5.58797 -10.55528,-5.40225 -11.81853,22.78788 z"
     id="path2459-4-0-9"
     style="fill:#ffffff;fill-opacity:1;stroke:none"
     sodipodi:nodetypes="csscc" /><path
     style="fill:none;stroke:#ffffff;stroke-width:1.91689217;stroke-linecap:round;stroke-linejoin:round;stroke-miterlimit:4;stroke-opacity:1;stroke-dasharray:none;marker-start:none"
     clip-path="none"
     d="m 120.59484,140.60891 -4.27967,-1.14357 -0.37718,4.14096 0.37718,-4.14096 c 12.23949,16.33123 8.92248,39.49239 -7.40875,51.73189 l -0.40326,-3.40143 0.40326,3.40143 3.84265,0.69336"
     id="path3935-4"
     inkscape:connector-curvature="0"
     sodipodi:nodetypes="cccccccc" /></g><g
   inkscape:groupmode="layer"
   id="layer1"
   inkscape:label="Man"
   style="display:inline"
   transform="translate(-30.167633,0.52211)"><path
     d="m 48.453745,7.7249957 c 0.046,-4.25 -3.453,-7.77100002 -7.714,-7.7250000246288 C 36.384745,-0.04600432 32.863745,3.4749957 32.886745,7.7249957 c -0.023,4.3550003 3.497,7.8410003 7.853,7.8530003 4.261,-0.012 7.76,-3.497 7.714,-7.8530003 l 0,0 z"
     id="path6709"
     style="fill:#ffffff;fill-opacity:1"
     inkscape:connector-curvature="0" /><path
     inkscape:connector-curvature="0"
     d="m 32.820608,17.097407 c -3.466133,2.148382 -1.015247,32.292563 -0.835975,36.317987 0.179272,4.025424 2.037,11.916065 2.037,11.916065 l 2.224156,30.165744 c 0.477629,6.477977 9.809044,6.692497 9.809044,0 l 0,-64.464101 c -0.453281,-4.927581 2.440216,-9.410256 -2.0782,-13.576334 -5.837184,-0.81489 -8.904173,-1.755107 -11.156025,-0.359361 z"
     id="path2459"
     style="fill:#ffffff;fill-opacity:1;stroke:none"
     sodipodi:nodetypes="szcssccs" /><path
     d="M 74.010175,22.444372 44.88304,17.601507 c -8.94339,-0.893073 -6.72404,7.421118 2.355,9.004001 l 26.126,3.098 c 5.553,1.062 6.237135,-6.155136 0.646135,-7.259136 z"
     id="path6713-1"
     style="fill:#ffffff;fill-opacity:1"
     inkscape:connector-curvature="0"
     sodipodi:nodetypes="ccccc" /><path
     sodipodi:nodetypes="ccccc"
     inkscape:connector-curvature="0"
     style="fill:#ffffff;fill-opacity:1"
     id="path3125"
     d="M 67.59477,37.328397 43.066781,21.893333 c -7.418407,-4.352524 -8.813357,3.763372 -1.552839,8.769867 l 23.139082,12.973206 c 4.403207,3.143721 7.361197,-3.112577 2.941746,-6.308009 z"
     inkscape:transform-center-x="-5.6145953"
     inkscape:transform-center-y="-2.3366314"
     clip-path="url(#clipPath4713)"
     inkscape:export-xdpi="196.52682"
     inkscape:export-ydpi="196.52682" /><path
     transform="matrix(0.57869687,0,0,0.57869687,32.21642,2.1441559)"
     d="m 79.661016,41.949154 a 8.0508471,8.0508471 0 1 1 -16.101695,0 8.0508471,8.0508471 0 1 1 16.101695,0 z"
     sodipodi:ry="8.0508471"
     sodipodi:rx="8.0508471"
     sodipodi:cy="41.949154"
     sodipodi:cx="71.610168"
     id="path4028"
     style="fill:#ffffff;fill-opacity:1;stroke:none"
     sodipodi:type="arc" /><path
     sodipodi:type="arc"
     style="fill:#ffffff;fill-opacity:1;stroke:none"
     id="path4030"
     sodipodi:cx="71.610168"
     sodipodi:cy="41.949154"
     sodipodi:rx="8.0508471"
     sodipodi:ry="8.0508471"
     d="m 79.661016,41.949154 a 8.0508471,8.0508471 0 1 1 -16.101695,0 8.0508471,8.0508471 0 1 1 16.101695,0 z"
     transform="matrix(0.52445375,0.07657766,-0.07657766,0.52445375,32.472629,13.443749)" /></g><g
   style="display:none"
   inkscape:groupmode="layer"
   id="g4688"
   inkscape:label="BackHandMask"
   sodipodi:insensitive="true"><rect
     style="fill:#d6d6d6;fill-opacity:1;stroke:none"
     id="rect4690"
     width="32.960468"
     height="24.309713"
     x="13.578399"
     y="25.838673" /><path
     sodipodi:type="inkscape:offset"
     inkscape:radius="1.0997282"
     inkscape:original="M 5.625 16.90625 C 4.4481995 16.90246 3.5006945 17.101595 2.65625 17.625 C -0.80988296 19.773382 1.6332281 49.912076 1.8125 53.9375 C 1.991772 57.962924 3.84375 65.84375 3.84375 65.84375 L 6.09375 96.03125 C 6.571379 102.50923 15.875 102.72375 15.875 96.03125 L 15.875 31.5625 C 15.728306 29.967805 15.93531 28.412101 16.125 26.90625 C 16.434494 26.98013 16.734947 27.067893 17.0625 27.125 L 39.84375 29.8125 C 40.696718 30.898423 42.012032 31.59375 43.5 31.59375 C 46.073095 31.59375 48.15625 29.510595 48.15625 26.9375 C 48.15625 24.364405 46.073095 22.28125 43.5 22.28125 C 42.891307 22.28125 42.314252 22.412706 41.78125 22.625 L 14.71875 18.125 C 14.439269 18.09709 14.19531 18.10416 13.9375 18.09375 C 13.89294 18.05119 13.85859 18.01124 13.8125 17.96875 C 10.16426 17.459444 7.5863342 16.912567 5.625 16.90625 z "
     style="fill:#757575;fill-opacity:1;stroke:none;display:inline"
     id="path4692"
     d="m 5.625,15.8125 c -1.3027617,-0.0042 -2.5111208,0.223332 -3.5625,0.875 -0.9471749,0.587079 -1.20905126,1.546457 -1.5,2.6875 -0.29094874,1.141043 -0.4943461,2.556505 -0.625,4.1875 -0.2613078,3.261991 -0.25668766,7.358207 -0.15625,11.53125 C -0.01787468,43.439836 0.63356554,52.087243 0.71875,54 0.90680373,58.222611 2.6866996,65.671745 2.75,65.9375 c 2.165e-4,9.09e-4 -1.756e-4,0.03051 0,0.03125 L 5,96.125 c 0.2772521,3.760312 3.2649945,5.905 6.15625,5.9375 1.445628,0.0162 2.892057,-0.46747 4,-1.5 1.107943,-1.032532 1.8125,-2.603326 1.8125,-4.53125 l 0,-64.46875 a 1.0998382,1.0998382 0 0 0 0,-0.09375 c -0.09581,-1.04154 0.06781,-2.1382 0.1875,-3.21875 l 22.28125,2.625 c 1.04466,1.075785 2.44884,1.8125 4.0625,1.8125 3.166649,0 5.75,-2.583351 5.75,-5.75 0,-3.166649 -2.583351,-5.75 -5.75,-5.75 -0.608437,0 -1.154692,0.141696 -1.6875,0.3125 L 14.90625,17.03125 a 1.0998382,1.0998382 0 0 0 -0.09375,0 c -0.186783,-0.01865 -0.29367,0.0033 -0.4375,0 A 1.0998382,1.0998382 0 0 0 14.34375,17 1.0998382,1.0998382 0 0 0 13.96875,16.875 C 10.357015,16.37079 7.7876516,15.819465 5.625,15.8125 z" /></g><g
   inkscape:groupmode="layer"
   id="layer5"
   inkscape:label="FistFocus"
   style="display:inline"
   transform="translate(-30.167633,0.52211)"><path
     sodipodi:type="arc"
     style="fill:none;stroke:#ffffff;stroke-width:1.22496474;stroke-miterlimit:4;stroke-opacity:1;stroke-dasharray:none"
     id="path4032"
     sodipodi:cx="71.610168"
     sodipodi:cy="41.949154"
     sodipodi:rx="8.0508471"
     sodipodi:ry="8.0508471"
     d="m 79.661016,41.949154 a 8.0508471,8.0508471 0 1 1 -16.101695,0 8.0508471,8.0508471 0 1 1 16.101695,0 z"
     transform="matrix(0.81635004,0,0,0.81635004,15.198037,-7.8251931)" /><path
     transform="matrix(0.74063057,0.10814253,-0.10814253,0.74063057,18.31629,2.1149492)"
     d="m 79.661016,41.949154 a 8.0508471,8.0508471 0 1 1 -16.101695,0 8.0508471,8.0508471 0 1 1 16.101695,0 z"
     sodipodi:ry="8.0508471"
     sodipodi:rx="8.0508471"
     sodipodi:cy="41.949154"
     sodipodi:cx="71.610168"
     id="path4034"
     style="fill:none;stroke:#ffffff;stroke-width:1.33603375;stroke-miterlimit:4;stroke-opacity:1;stroke-dasharray:none;display:inline"
     sodipodi:type="arc"
     inkscape:transform-center-x="-27.603541"
     inkscape:transform-center-y="-6.6240284"
     inkscape:export-xdpi="1563.3367"
     inkscape:export-ydpi="1563.3367" /></g><g
   inkscape:groupmode="layer"
   id="layer6"
   inkscape:label="Arrows"
   style="display:inline"
   transform="translate(-30.167633,0.52211)"><path
     style="fill:none;stroke:#ffffff;stroke-width:1.5;stroke-linecap:round;stroke-linejoin:round;stroke-miterlimit:4;stroke-opacity:1;stroke-dasharray:none;marker-start:none"
     clip-path="none"
     d="m 73.265571,4.417581 -4.08897,-1.7040015 -0.925968,4.0536878 0.925968,-4.0536878 c 2.303486,4.1237599 3.732315,8.4989975 4.347067,12.9118015"
     id="path3935"
     inkscape:connector-curvature="0"
     sodipodi:nodetypes="ccccc" /><path
     sodipodi:nodetypes="ccccc"
     inkscape:connector-curvature="0"
     id="path4024"
     d="m 61.99328,50.122913 c -3.081391,3.486013 -6.876908,6.444391 -11.305068,8.634214 l 0.225524,-3.417818 -0.225524,3.417818 3.651073,1.38434"
     clip-path="none"
     style="fill:none;stroke:#ffffff;stroke-width:1.5;stroke-linecap:round;stroke-linejoin:round;stroke-miterlimit:4;stroke-opacity:1;stroke-dasharray:none;marker-start:none" /></g>
</svg>
