<?xml version="1.0" encoding="UTF-8" standalone="no"?>
<svg
   xmlns:dc="http://purl.org/dc/elements/1.1/"
   xmlns:cc="http://creativecommons.org/ns#"
   xmlns:rdf="http://www.w3.org/1999/02/22-rdf-syntax-ns#"
   xmlns:svg="http://www.w3.org/2000/svg"
   xmlns="http://www.w3.org/2000/svg"
   xmlns:sodipodi="http://sodipodi.sourceforge.net/DTD/sodipodi-0.dtd"
   xmlns:inkscape="http://www.inkscape.org/namespaces/inkscape"
   id="ExplodeDiagram2"
   version="1.1"
   width="376.49384"
   height="615.50867">
  <title
     id="title3002">Kinect Explode Gesture Diagram</title>
  <metadata
     id="metadata3038">
    <rdf:RDF>
      <cc:Work
         rdf:about="">
        <dc:format>image/svg+xml</dc:format>
        <dc:type
           rdf:resource="http://purl.org/dc/dcmitype/StillImage" />
        <dc:title>Kinect Explode Gesture Diagram</dc:title>
        <dc:creator>
          <cc:Agent>
            <dc:title>Bryce Matsumori</dc:title>
          </cc:Agent>
        </dc:creator>
      </cc:Work>
    </rdf:RDF>
  </metadata>
  <sodipodi:namedview
     pagecolor="#521c74"
     bordercolor="#666666"
     borderopacity="1"
     objecttolerance="10"
     gridtolerance="10"
     guidetolerance="10"
     inkscape:pageopacity="1"
     inkscape:pageshadow="2"
     inkscape:window-width="1440"
     inkscape:window-height="848"
     id="namedview3034"
     showgrid="false"
     fit-margin-top="0"
     fit-margin-left="0"
     fit-margin-right="0"
     fit-margin-bottom="0" />
  <g
     id="g3040"
     inkscape:groupmode="layer"
     inkscape:label="Man"
     transform="matrix(1.25,0,0,-1.25,-182.67757,704.477)">
    <g
       id="g3058">
      <g
         id="g3060"
         clip-path="url(#clipPath3062)" />
    </g>
    <g
       id="g3070"
       transform="translate(301.0557,481.9116)"
       style="fill:#ffffff;fill-opacity:1" />
    <g
       id="g3066"
       transform="translate(257.3579,472.8984)" />
    <path
       inkscape:connector-curvature="0"
       d="m 257.3579,472.8984 c -28.918,0 -37.252,-20.009 -52.173,-53 l -39.42909,-87.83052 c -10.7404,-21.13336 22.27931,-35.96441 29.12236,-14.83205 l 45.97973,91.92957 8.444,0 0,-313.907996 c 0,-32.588 47.50299,-31.629 47.50299,0 l 0,182.220996 8.182,0 0,-182.220996 c 0,-31.629 47.765,-32.588 47.765,0 l 0,313.907996 8.247,0 37.67447,-96.45432 c 8.93664,-22.87963 38.08524,-14.17005 30.22552,9.09383 l -32.47799,97.34349 c -8.58485,25.73064 -21.064,53.694 -52.814,53.694 z"
       style="fill:#ffffff;fill-opacity:1;fill-rule:nonzero;stroke:none"
       id="path3068"
       sodipodi:nodetypes="ccccccssccssccscscc" />
    <path
       inkscape:connector-curvature="0"
       d="m 301.0557,481.9116 c 22.551,0 40.835,18.284 40.835,40.836 0,22.551 -18.284,40.834 -40.835,40.834 -22.552,0 -40.834,-18.283 -40.834,-40.834 0,-22.552 18.282,-40.836 40.834,-40.836"
       style="fill:#ffffff;fill-opacity:1;fill-rule:nonzero;stroke:none"
       id="path3072" />
    <path
       sodipodi:type="arc"
       style="fill:#ffffff;fill-opacity:1;stroke:none;display:inline"
       id="path4030"
       sodipodi:cx="71.610168"
       sodipodi:cy="41.949154"
       sodipodi:rx="8.0508471"
       sodipodi:ry="8.0508471"
       d="m 79.661016,41.949154 c 0,4.44636 -3.604487,8.050847 -8.050848,8.050847 -4.44636,0 -8.050847,-3.604487 -8.050847,-8.050847 0,-4.44636 3.604487,-8.050847 8.050847,-8.050847 4.446361,0 8.050848,3.604487 8.050848,8.050847 z"
       transform="matrix(2.3967209,-0.34995513,-0.34995513,-2.3967209,22.267815,449.11963)" />
    <path
       transform="matrix(2.3967209,-0.34995511,-0.34995511,-2.3967209,257.38953,440.02578)"
       d="m 79.661016,41.949154 c 0,4.44636 -3.604487,8.050847 -8.050848,8.050847 -4.44636,0 -8.050847,-3.604487 -8.050847,-8.050847 0,-4.44636 3.604487,-8.050847 8.050847,-8.050847 4.446361,0 8.050848,3.604487 8.050848,8.050847 z"
       sodipodi:ry="8.0508471"
       sodipodi:rx="8.0508471"
       sodipodi:cy="41.949154"
       sodipodi:cx="71.610168"
       id="path4051"
       style="fill:#ffffff;fill-opacity:1;stroke:none;display:inline"
       sodipodi:type="arc" />
    <path
       transform="matrix(3.7696887,-0.55042783,-0.55042783,-3.7696887,-67.640974,521.07035)"
       d="m 79.661016,41.949154 c 0,4.44636 -3.604487,8.050847 -8.050848,8.050847 -4.44636,0 -8.050847,-3.604487 -8.050847,-8.050847 0,-4.44636 3.604487,-8.050847 8.050847,-8.050847 4.446361,0 8.050848,3.604487 8.050848,8.050847 z"
       sodipodi:ry="8.0508471"
       sodipodi:rx="8.0508471"
       sodipodi:cy="41.949154"
       sodipodi:cx="71.610168"
       id="path4064"
       style="fill:none;stroke:#ffffff;stroke-width:1.25995433;stroke-miterlimit:4;stroke-opacity:1;stroke-dasharray:none;display:inline"
       sodipodi:type="arc" />
    <path
       sodipodi:type="arc"
       style="fill:none;stroke:#ffffff;stroke-width:1.26311338;stroke-miterlimit:4;stroke-opacity:1;stroke-dasharray:none;display:inline"
       id="path4084"
       sodipodi:cx="71.610168"
       sodipodi:cy="41.949154"
       sodipodi:rx="8.0508471"
       sodipodi:ry="8.0508471"
       d="m 79.661016,41.949154 c 0,4.44636 -3.604487,8.050847 -8.050848,8.050847 -4.44636,0 -8.050847,-3.604487 -8.050847,-8.050847 0,-4.44636 3.604487,-8.050847 8.050847,-8.050847 4.446361,0 8.050848,3.604487 8.050848,8.050847 z"
       transform="matrix(3.7602609,-0.54905121,-0.54905121,-3.7602609,168.09813,511.48243)" />
  </g>
  <g
     inkscape:groupmode="layer"
     id="layer2"
     inkscape:label="Ring"
     style="display:none"
     transform="translate(-110.55508,0)">
    <path
       sodipodi:type="arc"
       style="fill:none;stroke:#ffffff;stroke-width:11.22893715;stroke-linecap:butt;stroke-linejoin:miter;stroke-miterlimit:4;stroke-opacity:1;stroke-dasharray:11.22893696, 11.22893696;stroke-dashoffset:0"
       id="path4108"
       sodipodi:cx="379.9924"
       sodipodi:cy="368.60846"
       sodipodi:rx="150.46283"
       sodipodi:ry="150.46283"
       d="m 530.45523,368.60846 c 0,83.09833 -67.3645,150.46283 -150.46283,150.46283 -83.09833,0 -150.46283,-67.3645 -150.46283,-150.46283 0,-83.09833 67.3645,-150.46283 150.46283,-150.46283 83.09833,0 150.46283,67.3645 150.46283,150.46283 z"
       transform="matrix(1.0128554,0,0,0.28188875,-89.007456,202.71513)" />
  </g>
  <g
     inkscape:groupmode="layer"
     id="layer6"
     inkscape:label="ArrowBorder"
     transform="translate(-110.55508,0)">
    <path
       style="fill:none;stroke:#521c74;stroke-width:23;stroke-linecap:round;stroke-linejoin:round;stroke-miterlimit:4;stroke-opacity:1;stroke-dasharray:none;marker-start:none;display:inline"
       clip-path="none"
       d="m 371.03229,341.23203 16.84008,-24.58659 -23.657,-18.95611 23.657,18.95611 c -66.03829,15.07584 -126.10856,12.36586 -176.2778,-4.13004 l 25.84461,-16.97021 -25.84461,16.97021 19.86285,26.88139"
       id="path3935-3"
       inkscape:connector-curvature="0"
       sodipodi:nodetypes="cccccccc" />
  </g>
  <g
     inkscape:groupmode="layer"
     id="layer1"
     inkscape:label="Arrow"
     transform="translate(-110.55508,0)">
    <path
       style="fill:none;stroke:#ffffff;stroke-width:7;stroke-linecap:round;stroke-linejoin:round;stroke-miterlimit:4;stroke-opacity:1;stroke-dasharray:none;marker-start:none;display:inline"
       clip-path="none"
       d="m 371.03229,341.23203 16.84008,-24.58659 -23.657,-18.95611 23.657,18.95611 c -66.03829,15.07584 -126.10856,12.36586 -176.2778,-4.13004 l 25.84461,-16.97021 -25.84461,16.97021 19.86285,26.88139"
       id="path3935"
       inkscape:connector-curvature="0"
       sodipodi:nodetypes="cccccccc" />
  </g>
</svg>
