<?xml version="1.0" encoding="UTF-8" standalone="no"?>
<svg
   xmlns:dc="http://purl.org/dc/elements/1.1/"
   xmlns:cc="http://creativecommons.org/ns#"
   xmlns:rdf="http://www.w3.org/1999/02/22-rdf-syntax-ns#"
   xmlns:svg="http://www.w3.org/2000/svg"
   xmlns="http://www.w3.org/2000/svg"
   xmlns:sodipodi="http://sodipodi.sourceforge.net/DTD/sodipodi-0.dtd"
   xmlns:inkscape="http://www.inkscape.org/namespaces/inkscape"
   id="RotateDiagram"
   width="473.85077"
   height="492.40659"
   version="1.1">
  <defs
     id="defs3967" />
  <title
     id="title4723">Kinect Rotate Gesture Diagram</title>
  <metadata
     id="metadata3059">
    <rdf:RDF>
      <cc:Work
         rdf:about="">
        <dc:title>Kinect Rotate Gesture Diagram</dc:title>
        <dc:description />
        <dc:subject>
          <rdf:Bag />
        </dc:subject>
        <dc:publisher>
          <cc:Agent>
            <dc:title />
          </cc:Agent>
        </dc:publisher>
        <dc:creator>
          <cc:Agent>
            <dc:title>Bryce Matsumori</dc:title>
          </cc:Agent>
        </dc:creator>
        <dc:rights>
          <cc:Agent>
            <dc:title />
          </cc:Agent>
        </dc:rights>
        <dc:date />
        <dc:format>image/svg+xml</dc:format>
        <dc:type
           rdf:resource="http://purl.org/dc/dcmitype/StillImage" />
        <cc:license
           rdf:resource="" />
        <dc:language />
      </cc:Work>
    </rdf:RDF>
  </metadata>
  <sodipodi:namedview
     bordercolor="#666666"
     borderopacity="1.0"
     id="base"
     inkscape:current-layer="layer2"
     inkscape:cx="-192.37557"
     inkscape:cy="239.82604"
     inkscape:pageopacity="1"
     inkscape:pageshadow="2"
     inkscape:window-height="848"
     inkscape:window-width="1440"
     inkscape:window-x="-8"
     inkscape:window-y="-8"
     inkscape:zoom="0.55981979"
     pagecolor="#511c74"
     showgrid="false"
     fit-margin-top="0"
     fit-margin-left="0"
     fit-margin-right="0"
     fit-margin-bottom="0"
     inkscape:window-maximized="1"
     borderlayer="false"
     showborder="true"
     inkscape:showpageshadow="true" />
  <g
     id="g9354"
     transform="translate(-210.72178,-32.988221)">
    <g
       id="g2451"
       style="fill:#000000;fill-opacity:1" />
  </g>
  <g
     inkscape:groupmode="layer"
     id="layer1"
     inkscape:label="Man"
     transform="translate(-210.72178,-32.988221)"
     style="display:inline">
    <g
       transform="translate(5.7897893,-16.601677)"
       id="g2453"
       style="fill:#000000;fill-opacity:1">
      <path
         inkscape:connector-curvature="0"
         d="M 300.803,90.4239"
         id="path2457"
         style="fill:#000000;fill-opacity:1;stroke:none" />
    </g>
    <path
       inkscape:connector-curvature="0"
       d="m 314.59279,114.65832 c 22.551,0 40.835,-18.283999 40.835,-40.836099 0,-22.551 -18.284,-40.834 -40.835,-40.834 -22.552,0 -40.834,18.283 -40.834,40.834 0,22.5521 18.282,40.836099 40.834,40.836099 z"
       id="path2455"
       style="fill:#ffffff;fill-opacity:1;stroke:none" />
    <path
       inkscape:connector-curvature="0"
       d="m 262.89478,123.67133 c -28.918,0 -52.173,23.584 -52.173,53 l 0,125.375 c 0,24.375 35.673,24.375 35.673,0 l 0,-114.642 8.444,0 0,313.907 c 0,32.589 47.503,31.63 47.503,0 l 0,-182.22 8.182,0 0,182.22 c 0,31.63 47.765,32.589 47.765,0 l 0,-313.907 25.247,10 c 0,0 50.58027,27.06499 64,36.321 13.41973,9.25601 11,9.321 11,9.321 18.60667,15.76661 39.487,-20.438 20.422,-33 l -14.5,-4.3125 -67.5,-44.3125 c -20.33819,-13.35164 -27.83089,-33.194 -47.814,-37.694 -19.98311,-4.5 -86.249,-0.056 -86.249,-0.056 z"
       id="path2459"
       style="fill:#ffffff;fill-opacity:1;stroke:none"
       sodipodi:nodetypes="csssccssccsscczsccszc" />
    <path
       sodipodi:type="arc"
       style="fill:#ffffff;fill-opacity:1;stroke:none"
       id="path6632"
       sodipodi:cx="232.05128"
       sodipodi:cy="370.61172"
       sodipodi:rx="26.923077"
       sodipodi:ry="26.923077"
       d="m 258.97436,370.61172 a 26.923077,26.923077 0 1 1 -53.84615,0 26.923077,26.923077 0 1 1 53.84615,0 z"
       transform="matrix(0.79022721,0,0,-0.79022721,285.45111,519.23664)" />
  </g>
  <g
     inkscape:groupmode="layer"
     id="layer4"
     inkscape:label="FistFocus">
    <path
       transform="matrix(1.2577354,0,0,-1.2577354,-33.756549,659.51244)"
       d="m 258.97436,370.61172 c 0,14.86921 -12.05387,26.92308 -26.92308,26.92308 -14.8692,0 -26.92307,-12.05387 -26.92307,-26.92308 0,-14.8692 12.05387,-26.92307 26.92307,-26.92307 14.86921,0 26.92308,12.05387 26.92308,26.92307 z"
       sodipodi:ry="26.923077"
       sodipodi:rx="26.923077"
       sodipodi:cy="370.61172"
       sodipodi:cx="232.05128"
       id="path6634"
       style="fill:none;stroke:#ffffff;stroke-width:3.97539902;stroke-miterlimit:4;stroke-opacity:1;stroke-dasharray:none;display:inline"
       sodipodi:type="arc" />
  </g>
  <g
     inkscape:groupmode="layer"
     id="layer3"
     inkscape:label="Arrows"
     style="display:inline">
    <path
       style="fill:none;stroke:#ffffff;stroke-width:7;stroke-linecap:round;stroke-linejoin:round;stroke-miterlimit:4;stroke-opacity:1;stroke-dasharray:none;marker-start:none"
       clip-path="none"
       d="m 350.27822,139.1828 -12.53647,-10.22343 -7.46353,13.22343 7.46353,-13.22343 c 16.27434,72.72869 -29.49098,144.87991 -102.21967,161.15424 l 3.75614,-11.93081 -3.75614,11.93081 11.75614,8.06919"
       id="path3935"
       inkscape:connector-curvature="0"
       sodipodi:nodetypes="cccccccc" />
  </g>
  <g
     inkscape:groupmode="layer"
     id="layer2"
     inkscape:label="Text">
    <flowRoot
       xml:space="preserve"
       id="flowRoot6624"
       style="font-size:40px;font-style:normal;font-weight:normal;line-height:125%;letter-spacing:0px;word-spacing:0px;fill:#000000;fill-opacity:1;stroke:none;display:inline;font-family:Sans"
       transform="translate(-70.947079,-19.871357)"><flowRegion
         id="flowRegion6626"><rect
           id="rect6628"
           width="366.65933"
           height="104.35689"
           x="180.50922"
           y="38.313091" /></flowRegion><flowPara
         id="flowPara6630"
         style="font-size:40px;font-style:normal;font-variant:normal;font-weight:normal;font-stretch:normal;text-align:end;text-anchor:end;fill:#ffffff;fill-opacity:1;font-family:Segoe UI;-inkscape-font-specification:Segoe UI">&quot;Grab&quot; the model</flowPara><flowPara
         style="font-size:35px;font-style:normal;font-variant:normal;font-weight:normal;font-stretch:normal;text-align:end;text-anchor:end;fill:#ffffff;fill-opacity:1;font-family:Segoe UI;-inkscape-font-specification:Segoe UI"
         id="flowPara4505">(make a fist)</flowPara><flowPara
         style="font-size:40px;font-style:normal;font-variant:normal;font-weight:normal;font-stretch:normal;text-align:end;text-anchor:end;fill:#ffffff;fill-opacity:1;font-family:Segoe UI;-inkscape-font-specification:Segoe UI"
         id="flowPara4501" /></flowRoot>  </g>
</svg>
